<svg width="23" height="13" viewBox="0 0 23 13" fill="none" xmlns="http://www.w3.org/2000/svg">
<path d="M17.3151 3.84089C17.4249 4.31039 17.4847 4.79884 17.4847 5.30124V6.85637C17.4847 7.33012 17.1865 7.7526 16.7401 7.91118C15.6602 8.29485 13.799 8.75226 11.0638 8.75226C8.32857 8.75226 6.46731 8.29485 5.38757 7.91118C4.94122 7.75252 4.643 7.33012 4.643 6.85637V5.30124C4.643 4.79876 4.70285 4.31039 4.81255 3.84082C1.90656 4.74525 0 6.26232 0 7.98126C0 10.7528 4.95345 12.9999 11.0638 12.9999C17.174 12.9999 22.1276 10.7528 22.1276 7.98126C22.1276 6.26232 20.2211 4.74525 17.3151 3.84089Z" fill="#1B242C"/>
<path d="M5.76172 5.30138V6.8565C6.98407 7.29085 8.76608 7.63295 11.0631 7.63295C13.3601 7.63295 15.1421 7.29085 16.3645 6.8565V5.30138C16.3645 2.37336 13.991 0 11.0631 0C8.13501 0 5.76172 2.37336 5.76172 5.30138Z" fill="#1B242C"/>
</svg>
