<svg width="24" height="14" viewBox="0 0 24 14" fill="none" xmlns="http://www.w3.org/2000/svg">
<path d="M12.9453 7C12.9453 7.53561 12.8765 8.05465 12.7598 8.55469C12.8014 8.83301 13.0363 9.04687 13.3224 9.04687C13.5503 9.04687 13.7451 8.91099 13.8367 8.71599C13.7498 8.16411 13.6994 7.59134 13.6994 6.99964C13.6994 6.40786 13.7502 5.83553 13.8367 5.28328C13.7447 5.08828 13.5495 4.95254 13.3224 4.95254C13.036 4.95254 12.801 5.16656 12.7598 5.44437C12.8765 5.94513 12.9453 6.46417 12.9453 7Z" fill="#1B242C"/>
<path d="M23.0014 7C23.0014 3.13401 21.0038 -3.02731e-07 18.5398 -1.95026e-07C16.4623 -1.04218e-07 14.7218 2.23086 14.2247 5.24671C14.1415 5.75265 14.0925 6.27925 14.084 6.82286C14.0825 6.88234 14.0781 6.94052 14.0781 7C14.0781 7.05948 14.0832 7.11802 14.084 7.17714C14.0924 7.72096 14.1415 8.24743 14.2247 8.75329C14.7217 11.7691 16.4623 14 18.5398 14C21.0038 14 23.0014 10.8659 23.0014 7ZM14.8536 7C14.8536 3.7705 16.5224 1.15223 18.5806 1.15223C20.6389 1.15223 21.4719 3.7705 21.4719 7C21.4719 10.2295 20.6389 12.8476 18.5806 12.8476C16.5224 12.8476 14.8536 10.2295 14.8536 7Z" fill="#1B242C"/>
<path d="M20.7155 7.00002C20.7155 5.80754 20.5613 1.91584 18.5784 1.91584C16.9668 1.91584 15.6055 4.24406 15.6055 7.00002C15.6055 9.75598 16.9668 12.084 18.5784 12.084C20.5613 12.084 20.7155 8.19243 20.7155 7.00002Z" fill="#1B242C"/>
<path d="M12.3797 8.52397C12.4898 8.0711 12.5542 7.60016 12.5627 7.11489C12.5634 7.07651 12.5686 7.03899 12.5686 7.00039C12.5686 6.96179 12.5634 6.92428 12.5627 6.8859C12.5542 6.40048 12.4898 5.92989 12.3797 5.47688C11.7047 2.69932 9.23552 0.636527 6.28428 0.636527C2.81351 0.636527 -4.31807e-07 3.48567 -2.78173e-07 7.00039C-1.2454e-07 10.5151 2.81351 13.3643 6.28428 13.3643C9.23553 13.3643 11.7044 11.3013 12.3797 8.52397ZM1.39168 7.00039C1.39168 4.26906 3.58661 2.04597 6.28392 2.04597C8.98167 2.04597 11.1765 4.26827 11.1765 7.00039C11.1765 9.7323 8.98167 11.955 6.28392 11.955C3.58661 11.955 1.39168 9.73187 1.39168 7.00039Z" fill="#1B242C"/>
<path d="M4.91387 5.90635C4.51182 5.57453 4.07485 5.30824 3.5997 5.09797C3.26904 4.95179 2.98055 5.44542 3.31434 5.59232C3.74149 5.78178 4.15165 6.01221 4.51402 6.31127C4.79377 6.54328 5.1966 6.14017 4.91387 5.90635Z" fill="#1B242C"/>
<path d="M5.67146 5.03405C5.12278 4.6977 4.51764 4.49189 3.90731 4.30474C3.55731 4.19773 3.40876 4.75062 3.7567 4.85734C4.3223 5.02995 4.87773 5.21674 5.38602 5.52847C5.69905 5.72009 5.98298 5.22495 5.67146 5.03405Z" fill="#1B242C"/>
</svg>
