<?xml version="1.0" encoding="utf-8"?>
<!-- Generator: Adobe Illustrator 22.1.0, SVG Export Plug-In . SVG Version: 6.00 Build 0)  -->
<svg version="1.1" id="Layer_1" xmlns="http://www.w3.org/2000/svg" xmlns:xlink="http://www.w3.org/1999/xlink" x="0px" y="0px"
	 width="90px" height="33px" viewBox="0 0 90 33" style="enable-background:new 0 0 90 33;" xml:space="preserve">
<style type="text/css">
	.st0{fill:#4326c4;}
	.st1{fill:#1B242C;}
</style>
<g>
	<g>
		<path class="st0" d="M70.7,5.1c-0.3-0.6-0.1-1.3,0.4-1.6s1.2,0,1.5,0.6c0,0.1,0.1,0.2,0.1,0.3l0.1,0.2c0,0.1,0.1,0.3,0,0.5
			l-0.1,1.2c0,0.7,0.1,1.5,0.4,2.2c-1.5,0.9-2.4,2-3,2.9c-0.4,0.5-0.6,1-0.7,1.3c-0.1,0.2-0.2,0.4-0.2,0.6l0,0l0,0l0,0l0,0l0.7,0.3
			l-0.7-0.3c-0.1,0.4,0.1,0.8,0.5,0.9c0.3,0.1,0.7,0,0.8-0.4l0,0l0,0v-0.1c0-0.1,0.1-0.2,0.1-0.3c0.1-0.3,0.3-0.7,0.6-1.1
			c0.6-0.9,1.6-2,3.2-2.9c1.6-0.8,3-1,4.1-1c0.5,0,1,0.1,1.3,0.1c0.1,0,0.3,0.1,0.4,0.1l0,0l0,0l0,0l0,0c0.4,0.1,0.7-0.1,0.8-0.5
			c0.1-0.4-0.2-0.8-0.5-0.9l-0.1,0.7L80.5,7l0,0l0,0l0,0l0,0l0,0l0,0c-0.2,0-0.4-0.1-0.6-0.1c-0.5-0.1-1-0.1-1.5-0.1
			c-1.4,0-2.8,0.3-4.1,0.9c-0.2-0.4-0.2-0.9-0.2-1.3l0.1-1.2c0-0.3,0-0.6-0.1-0.9L74,4c-0.4-1.4-1.8-2.3-3.1-2s-2.1,1.7-1.7,3.1
			c0.1,0.2,0.1,0.4,0.2,0.6l0.3,0.6c0.2,0.4,0.6,0.5,0.9,0.3C71,6.4,71.2,6,71,5.6L70.7,5.1z"/>
	</g>
	<path class="st0" d="M1.2,15.3c0-1.4,0-2.6,0-3.6s0-2.1,0.1-3.2c0-1.1,0-2.1,0-3.1s0-1.8-0.1-2.6S1.1,1.5,1,1.2
		c0.6-0.4,1.2-0.7,1.8-0.8c0.3-0.1,0.6-0.1,0.9-0.2c0.4,0,0.7,0,0.9,0C4.8,0.3,5,0.4,5.1,0.6c0,0.2,0.1,0.4,0.1,0.7s0,0.6,0,0.9
		s0,0.9,0,1.8S5.1,5.9,5.1,7.1C5,8.2,4.9,9.6,4.9,11s0,2.9,0,4.4c0.8-0.9,1.5-1.8,2.3-2.7s1.4-1.7,2-2.6c1.5-2.1,2.7-3.9,3.4-5.5
		c0.8-1.6,1.2-2.7,1.2-3.3c0.5-0.3,0.9-0.6,1.4-0.7c0.4-0.2,0.8-0.3,1.1-0.4C16.6,0,16.9,0,17.1,0c0.6,0,1,0.3,1,0.8
		c0.1,0.5,0,1.1-0.2,1.7c-0.2,0.5-0.6,1.3-1.1,2.2c-0.6,0.9-1.2,2-2,3.1s-1.6,2.3-2.6,3.6s-1.9,2.4-2.9,3.6c0.5,0.9,1.1,2.1,1.8,3.4
		s1.4,2.6,2.1,3.8c0.7,1.3,1.4,2.4,2.1,3.5c0.7,1,1.2,1.8,1.6,2.4c0.5,0.7,1,1.3,1.3,1.7c0.3,0.4,0.7,0.7,0.9,1
		c0.3,0.2,0.5,0.5,0.7,0.7c0.3,0.2,0.5,0.3,0.9,0.6c-0.5,0.2-1,0.4-1.4,0.5c-0.5,0.1-0.9,0.2-1.3,0.3c-0.4,0-0.9,0.1-1.2,0.1
		c-0.8,0-1.5-0.4-2.1-1c-0.7-0.7-1.3-1.4-1.8-2.4c-0.2-0.3-0.5-0.9-1-1.8s-1-1.9-1.6-3.1c-0.6-1.1-1.2-2.3-1.8-3.5S7.3,18.9,6.9,18
		c-0.4,0.4-0.8,0.8-1.1,1.1c-0.3,0.3-0.7,0.7-1.1,1c0,1.3,0,2.4,0,3.5s0,2.1,0,3s0,1.7,0,2.3s0,1,0,1.3s-0.1,0.7-0.3,1
		C4.2,31.5,4,31.8,3.6,32c-0.2,0-0.6,0.2-1.2,0.3S1,32.5,0.2,32.4c0-0.4,0.1-0.9,0.2-1.5s0.2-1.2,0.2-1.7c0.1-0.7,0.2-1.3,0.2-2
		s0.1-1.4,0.1-2.3C1,24,1,23.1,1,22.1c-0.2-0.2-0.3-0.3-0.5-0.6C0.3,21.2,0.1,21,0,20.6c0.1-0.1,0.2-0.3,0.3-0.4s0.2-0.3,0.3-0.4
		L1,19.4C1.1,18.1,1.2,16.7,1.2,15.3z"/>
	<path class="st1" d="M23,5.3c0.6,0,1.1,0.2,1.6,0.5s0.8,0.8,0.8,1.4c0,0.4-0.1,0.8-0.3,1.2c-0.2,0.4-0.5,0.7-0.8,1s-0.7,0.6-1,0.7
		c-0.4,0.2-0.8,0.3-1.1,0.3c-0.4,0-0.8-0.1-1.1-0.2c-0.3-0.2-0.5-0.3-0.7-0.6c-0.2-0.2-0.3-0.4-0.3-0.7S20,8.4,20,8.2
		c0-0.3,0-0.6,0.1-1c0.1-0.3,0.3-0.7,0.5-1s0.5-0.6,0.9-0.7S22.4,5.3,23,5.3z M20,13.7c0-0.2,0.2-0.3,0.7-0.6c0.4-0.2,1-0.3,1.5-0.5
		c0.6-0.1,1-0.2,1.5-0.2s0.7,0.1,0.7,0.3c0,0.4,0,1-0.1,1.8c0,0.8-0.1,1.6-0.2,2.5s-0.2,1.7-0.3,2.6c-0.1,0.9-0.1,1.6-0.2,2.2
		c0,0.6-0.1,1.3-0.2,2.1c0,0.6-0.1,1.3-0.1,2.1c0,0.8,0,1.5,0,2.4c0,0.1-0.1,0.3-0.4,0.4s-0.6,0.3-0.9,0.3c-0.3,0.1-0.7,0.1-1,0.1
		s-0.5,0-0.5-0.2c0-0.1-0.1-0.3-0.2-0.6c0-0.3-0.1-0.7-0.2-1.2S20,26,20,25.1c0-0.8,0-1.8,0-3.1c0.1-2.4,0.1-4.2,0-5.5
		C20.1,15.4,20.1,14.4,20,13.7z M21.9,9.2c0.2,0,0.3,0,0.6-0.2c0.2-0.1,0.4-0.3,0.6-0.4c0.2-0.2,0.3-0.3,0.5-0.6
		c0.1-0.2,0.2-0.3,0.2-0.5s-0.1-0.3-0.3-0.3c-0.1,0-0.3,0-0.5,0.2c-0.2,0.1-0.4,0.3-0.6,0.4c-0.2,0.2-0.3,0.3-0.5,0.5
		c-0.1,0.2-0.2,0.3-0.2,0.5C21.6,9.1,21.7,9.2,21.9,9.2z"/>
	<path class="st1" d="M36.8,15.5c-0.2,0-0.5,0.1-0.7,0.3c-0.3,0.3-0.5,0.6-0.8,1s-0.5,0.9-0.8,1.4s-0.5,1-0.7,1.5
		c-0.5,1.2-1,2.4-1.4,3.7c-0.4,1.3-0.7,2.3-0.8,3.2c0,0.1,0,0.2,0,0.3c0,0.1,0,0.1,0,0.2c0,0,0,0.1,0,0.3c0,0.4-0.1,0.7-0.2,1
		s-0.3,0.4-0.6,0.5c-0.3,0-0.7,0.1-1,0.1s-0.7,0-1-0.1c-0.2,0-0.3-0.2-0.4-0.3c-0.1-0.2-0.2-0.3-0.2-0.6c0-0.2-0.1-0.4-0.1-0.6
		s0-0.3,0-0.5s0-0.7,0-1.6s0-1.9,0.1-3.1c0-1.1,0-2.3,0-3.4s0-1.9,0-2.5c0-0.4-0.1-0.8-0.2-1.1s-0.1-0.6-0.2-0.9
		c-0.1-0.3-0.2-0.6-0.3-0.8c0.3-0.2,0.6-0.3,0.9-0.4c0.3-0.1,0.6-0.2,0.9-0.3s0.6-0.1,0.9-0.2c0.7,0,1.2,0,1.6,0
		c0.4,0,0.6,0.3,0.6,0.9c0,0.5,0,1.2-0.1,2.2s-0.1,2.4-0.2,4.2c0.3-0.7,0.7-1.5,1.1-2.4c0.4-0.9,0.9-1.7,1.4-2.5s1-1.4,1.5-2
		c0.5-0.5,1-0.8,1.4-0.8c0.3,0,0.7,0,1.1,0.2c0.4,0.1,0.8,0.3,1.2,0.5c0.3,0.2,0.7,0.4,1,0.7s0.5,0.5,0.6,0.8s0.2,0.7,0.2,1.3
		c0,0.6,0,1.3,0,2c0.2-0.5,0.5-1,0.8-1.6c0.3-0.5,0.6-1,0.9-1.4c0.3-0.4,0.6-0.8,0.9-1.1c0.3-0.3,0.6-0.5,0.9-0.7
		c0.3-0.1,0.7-0.2,1.2-0.1c0.5,0.1,1,0.2,1.4,0.4c0.5,0.2,0.9,0.5,1.2,0.7c0.3,0.3,0.6,0.6,0.7,0.8c0.1,0.3,0.2,0.7,0.2,1.3
		s0.1,1.3,0.1,2s0,1.4,0,2.2s0,1.4,0,2c0,1.7,0,3,0,3.9c0.1,1,0.4,1.7,1,2.1c-0.4,0.3-0.8,0.4-1.1,0.6c-0.3,0.1-0.7,0.2-0.9,0.3
		c-0.3,0.1-0.6,0.1-0.8,0.1c-0.3,0-0.6-0.1-0.8-0.2c-0.2-0.2-0.3-0.3-0.5-0.6c-0.1-0.3-0.2-0.5-0.2-0.9c0-0.3,0-0.6,0-0.9
		s0-0.7,0-1.4c0-0.7,0.1-1.4,0.1-2.3s0-1.7,0-2.6s-0.1-1.7-0.2-2.5c-0.1-0.7-0.3-1.4-0.5-1.8c-0.2-0.5-0.5-0.7-0.9-0.7
		c-0.3,0-0.7,0.2-1,0.6c-0.3,0.4-0.6,1-0.9,1.6s-0.5,1.4-0.7,2.2c-0.2,0.8-0.4,1.6-0.6,2.4c-0.2,0.8-0.3,1.5-0.4,2.2
		c-0.1,0.7-0.1,1.2-0.1,1.6v-0.4c0,0.5,0,1,0,1.5c0,0.4,0,0.9,0,1.4c0,0.2-0.1,0.3-0.5,0.4c-0.3,0.1-0.7,0.2-1.1,0.2
		c-0.4,0-0.8-0.1-1.1-0.3s-0.5-0.4-0.5-0.9c0-0.3,0-0.7,0-1.3s0-1.2,0-1.9s0-1.4,0-2.2c0-0.8,0-1.5,0-2.2c0-0.5,0-1.1,0-1.7
		s0-1.1-0.1-1.6c0-0.5-0.2-0.8-0.3-1.1C37.3,15.7,37.1,15.5,36.8,15.5z"/>
	<path class="st1" d="M53.5,2.3C53.7,2,54,1.7,54.2,1.5c0.3-0.2,0.6-0.4,0.8-0.6c0.3-0.1,0.7-0.3,1-0.3s0.5-0.1,0.7-0.1s0.4,0,0.6,0
		s0.3,0.1,0.4,0.2c0,1.4-0.1,2.5-0.1,3.5S57.5,6,57.5,6.7s-0.1,1.4-0.1,1.9c0,0.6,0,1.1-0.1,1.7c0,0.6-0.1,1.2-0.1,1.8
		c0,0.7-0.1,1.5-0.2,2.4c0,0.6-0.1,1.2-0.1,1.8c0,0.6,0,1.2-0.1,1.8c0.3-0.7,0.6-1.4,1-2.2s0.8-1.5,1.4-2.1c0.5-0.6,1.1-1.1,1.7-1.6
		c0.7-0.4,1.4-0.6,2.1-0.6c1.1,0,2,0.3,2.6,0.9c0.7,0.6,1.1,1.4,1.5,2.3c0.3,0.9,0.6,1.8,0.7,2.8s0.1,1.9,0.1,2.7
		c0,0.7-0.1,1.6-0.3,2.6s-0.5,2-1,2.9s-1.1,1.7-1.8,2.4c-0.7,0.7-1.7,1-2.9,1c-0.8,0-1.5-0.2-2.1-0.5s-1-0.7-1.4-1.2
		c-0.3-0.4-0.6-0.9-0.8-1.4c-0.2-0.4-0.2-0.8-0.2-1s0.1-0.4,0.2-0.7c0.1-0.3,0.3-0.5,0.5-0.8s0.4-0.4,0.7-0.6
		c0.2-0.2,0.4-0.2,0.6-0.2c0,0.9,0,1.7,0.2,2.1c0.2,0.5,0.4,0.9,0.7,1.1c0.3,0.3,0.7,0.4,1,0.5c0.5,0,1-0.3,1.4-0.8s0.7-1.1,1-1.9
		c0.3-0.7,0.5-1.5,0.7-2.4s0.2-1.7,0.2-2.3c0-0.5,0-1-0.1-1.7c-0.1-0.6-0.2-1.1-0.3-1.6c-0.1-0.5-0.3-0.9-0.6-1.2s-0.6-0.5-0.9-0.5
		c-0.6,0-1.3,0.3-2,1c-0.7,0.9-1.3,1.9-1.8,3c-0.6,1.1-1,2.4-1.4,3.9c-0.3,1.4-0.5,2.9-0.5,4.4c0,0.4,0,0.7,0,1s0.1,0.6,0.1,0.8
		c-0.7,0.3-1.2,0.4-1.6,0.5c-0.2,0-0.4,0.1-0.6,0c-0.4,0-0.7-0.1-1-0.3c-0.2-0.2-0.4-0.7-0.5-1.4c0-0.3,0-1,0-2.1s0-2.5,0-4.2
		c0-1.6,0-3.4,0-5.3s0-3.8,0-5.5s0-3.4,0-4.8C53.4,3.9,53.4,2.9,53.5,2.3z"/>
	<path class="st1" d="M76,29.3c-2,0-3.5-0.7-4.6-2c-1.1-1.4-1.6-3.1-1.6-5.2c0-1.5,0.2-2.9,0.7-4.2c0.4-1.3,1-2.4,1.8-3.4
		c0.7-1,1.6-1.7,2.6-2.3c1-0.5,2-0.8,3.1-0.8c1,0,2,0.4,2.7,1.1c0.7,0.7,1.1,1.8,1.1,3.2c0,0.9-0.2,1.8-0.6,2.7s-0.9,1.7-1.6,2.4
		c-0.7,0.7-1.4,1.3-2.1,1.7c-0.7,0.4-1.5,0.7-2.2,0.7c-0.4,0-0.8,0-1.1-0.2c-0.3-0.1-0.6-0.3-0.9-0.5c0.1,1.6,0.4,2.7,1,3.4
		c0.6,0.7,1.4,1,2.4,1c0.7,0,1.3-0.1,1.8-0.4s1-0.6,1.4-1c0.3-0.3,0.7-0.7,0.9-1.1c0.2-0.4,0.4-0.7,0.5-0.9c0.1-0.2,0.2-0.3,0.4-0.3
		c0.2,0,0.3,0.2,0.3,0.5s-0.1,0.8-0.3,1.4c-0.2,0.7-0.6,1.3-1,1.9c-0.5,0.7-1.1,1.2-1.8,1.7C78,29.1,77.1,29.3,76,29.3z M78,13.1
		c-0.2,0-0.5,0.2-1,0.5s-1,0.9-1.5,1.6s-1,1.5-1.4,2.4c-0.4,1-0.7,2-0.8,3.2c1.7-0.4,3.1-1,4.1-1.9s1.5-2.1,1.5-3.8
		c0-0.8-0.1-1.4-0.3-1.7C78.3,13.3,78.1,13.1,78,13.1z"/>
	<path class="st1" d="M90,1.2c0,1-0.2,2.2-0.3,3.5c-0.1,1.4-0.3,2.7-0.4,4.3c-0.2,1.5-0.3,3.1-0.5,4.8s-0.3,3.4-0.4,5.1
		c-0.1,1.7-0.2,3.1-0.1,4.1c0,1,0.1,1.9,0.2,2.6s0.3,1.2,0.5,1.6s0.4,0.8,0.8,1.1c-0.3,0.2-0.7,0.4-1,0.5S88.2,29,88,29.1
		c-0.3,0.1-0.5,0.1-0.8,0.1c-0.4,0-0.8-0.2-1.1-0.6c-0.3-0.4-0.6-1-0.7-1.6c-0.2-0.7-0.3-1.4-0.4-2.2c-0.1-0.8-0.1-1.6-0.1-2.4
		c0-0.9,0-1.8,0.1-3c0-1.1,0.1-2.3,0.2-3.6s0.1-2.6,0.2-4s0.2-2.7,0.2-4.1c0-1,0.1-2,0.2-2.8c0-0.7,0.1-1.4,0.1-2s0-1,0-1.1
		c0.2-0.2,0.4-0.4,0.7-0.5c0.3-0.1,0.5-0.2,0.7-0.3c0,0.1,0.3,0,0.6,0h0.8c0.2,0,0.5,0,0.7,0C89.7,1,89.8,1.1,90,1.2z"/>
</g>
</svg>
