<svg width="22" height="17" viewBox="0 0 22 17" fill="none" xmlns="http://www.w3.org/2000/svg">
<path d="M7.76861 9.57071C8.07245 8.57908 8.70004 7.71797 9.55108 7.12518L10.3349 6.57921V9.16719C10.5144 9.08722 10.7034 9.02624 10.8994 8.9869C11.7689 8.81229 12.6641 8.47753 13.5264 8.00865V3.65437C13.6094 3.39943 13.6572 3.13141 13.6651 2.85713C13.6909 1.95712 13.2885 1.09817 12.5805 0.541983C12.5172 0.492218 12.4521 0.446409 12.3862 0.402685C12.28 0.323075 12.1349 0.209163 11.9633 0.0618099C11.8953 0.00348728 11.8019 -0.0151385 11.7168 0.0126924C11.6317 0.0405953 11.5676 0.110856 11.5472 0.198016C11.1877 1.73785 9.898 3.44345 7.97608 4.69174C6.8883 5.39823 5.7491 5.8597 4.6834 6.07365C4.3398 6.14261 4.03394 6.33671 3.82539 6.61833C3.40131 7.19113 2.86174 7.66792 2.27161 7.84116L1.05913 8.19699C0.278136 8.42619 -0.169172 9.24515 0.0600198 10.0261C0.196082 10.4896 0.547456 10.8383 0.967653 10.9951L3.8479 11.5197C5.10115 11.6948 5.48583 11.7566 6.22726 11.3881C6.9687 11.0196 7.52604 10.3624 7.76861 9.57071Z" fill="#1B242C"/>
<path d="M21.3078 6.39283C21.3371 5.37114 20.8803 4.39605 20.0765 3.76471C20.0046 3.70826 19.9307 3.6562 19.8558 3.60657C19.7354 3.51618 19.5706 3.38688 19.3758 3.2196C19.3223 3.17365 19.2549 3.14941 19.1864 3.14941C19.1561 3.14941 19.1256 3.15416 19.096 3.16387C18.9994 3.19551 18.9265 3.27526 18.9035 3.37429C18.4953 5.12232 17.0312 7.05861 14.8494 8.47562C13.6146 9.27761 12.3213 9.80143 11.1115 10.0444C10.7214 10.1227 10.3742 10.3429 10.1374 10.6627C9.65597 11.3129 9.04348 11.8542 8.3736 12.0508L6.99722 12.4548C6.11066 12.715 5.60287 13.6446 5.86306 14.5312C6.01746 15.0573 6.41644 15.4532 6.89338 15.6313L10.163 16.2268C10.8279 16.3197 11.2775 16.3845 11.6536 16.3845C12.0824 16.3845 12.4158 16.3003 12.8642 16.0774C13.7058 15.6589 14.3385 14.913 14.6139 14.0143C14.9588 12.8885 15.6713 11.911 16.6374 11.2381L17.5271 10.6183V15.8554C17.5271 16.088 17.7156 16.2765 17.9482 16.2765H20.729C20.9616 16.2765 21.1501 16.088 21.1501 15.8554V7.29787C21.2445 7.00849 21.2989 6.70422 21.3078 6.39283Z" fill="#1B242C"/>
</svg>
