<?xml version="1.0" encoding="utf-8"?>
<!-- Generator: Adobe Illustrator 26.1.0, SVG Export Plug-In . SVG Version: 6.00 Build 0)  -->
<svg version="1.1" id="Layer_1" xmlns="http://www.w3.org/2000/svg" xmlns:xlink="http://www.w3.org/1999/xlink" x="0px" y="0px"
	 viewBox="0 0 491.11 510.24" style="enable-background:new 0 0 491.11 510.24;" xml:space="preserve">
<style type="text/css">
	.st0{fill:#1B242C;}
</style>
<path class="st0" d="M389.14,6.77L32.31,171.69c-20.4,9.11-33.04,29.42-32.28,51.76c0.78,22.41,14.91,41.82,35.97,49.46
	c0.87,0.29,182.11,38.71,182.11,38.71s70.31,170.56,70.76,171.32c11.21,19.41,32.78,29.89,54.97,26.75
	c13.72-1.96,25.76-8.88,34.2-18.93c5.21-6.21,9.04-13.6,11.06-21.78l99.55-378.76c7.21-27.19-1.69-55.3-23.24-73.35
	C443.86-1.22,414.61-5.05,389.16,6.78L389.14,6.77z M48.45,235.23c-7.85-3.43-8.72-10.88-8.82-13.17
	c-0.07-2.36,0.36-10.41,8.91-14.2c0.09-0.05,357.27-165.14,357.27-165.14c4.74-2.2,9.68-3.21,14.54-3.09l-195.42,232.9L48.45,235.23
	z M450.33,80.1l-99.63,379.1c-2.24,9.11-10.07,10.92-12.43,11.24c-2.25,0.34-9.77,0.76-14.51-6.41l-68.4-166.09L450.79,65.02
	c1.01,4.81,0.9,9.94-0.45,15.06L450.33,80.1z"/>
</svg>
