<svg width="16" height="16" viewBox="0 0 16 16" fill="none" xmlns="http://www.w3.org/2000/svg">
<path d="M5.83013 5.80321C5.67871 5.80321 5.53177 5.7721 5.3933 5.71065C5.05644 5.56118 4.82183 5.25454 4.7656 4.89031L4.34155 2.14107C4.09004 2.12859 3.83606 2.16476 3.59423 2.25132C3.59418 2.25132 3.59413 2.25137 3.59402 2.25137C2.98986 2.46729 2.54128 2.98137 2.40823 3.60912L0.00727439 14.9375C-0.0112059 15.0248 0.00585284 15.1159 0.0547123 15.1906C0.103572 15.2653 0.180231 15.3173 0.26763 15.3353L1.76848 15.6443C1.94481 15.6806 2.11834 15.5711 2.16151 15.3963L4.04692 7.76191L4.01802 14.8067C4.01765 14.8958 4.05282 14.9814 4.11568 15.0446C4.1786 15.1078 4.26405 15.1433 4.35319 15.1433H7.44229V4.95375L6.42277 5.62557C6.24634 5.74177 6.04142 5.80321 5.83013 5.80321Z" fill="#1B242C"/>
<path d="M15.6673 14.9375L13.2664 3.60919C13.1335 2.98217 12.6841 2.4671 12.0806 2.25139L12.0804 2.25134C11.8385 2.16473 11.5845 2.12856 11.3328 2.14109L10.9092 4.89022C10.8531 5.25446 10.6185 5.56114 10.2816 5.71067C10.1432 5.77211 9.99615 5.80328 9.84473 5.80328C9.63345 5.80328 9.42853 5.74184 9.25215 5.62564L8.23242 4.95393V15.1434H11.3276C11.4168 15.1434 11.5023 15.1079 11.5652 15.0447C11.6281 14.9815 11.6632 14.8958 11.6629 14.8066L11.6315 7.76825L13.5132 15.3963C13.5564 15.5711 13.7299 15.6806 13.9063 15.6443L15.4071 15.3354C15.4945 15.3174 15.5711 15.2653 15.62 15.1906C15.6688 15.1159 15.6859 15.0248 15.6673 14.9375Z" fill="#1B242C"/>
<path d="M9.84384 5.01336C9.88338 5.01336 9.92313 5.0052 9.96041 4.98867C10.0499 4.94897 10.1129 4.86647 10.1278 4.7698L10.5858 1.79785C10.7006 1.05322 10.2319 0.341911 9.50188 0.155687C9.47171 0.148 9.44143 0.141208 9.41111 0.135469C8.95874 0.0498598 8.41802 0 7.83676 0C7.25513 0 6.71399 0.0499125 6.26136 0.135627C6.2216 0.143156 6.1818 0.152581 6.1421 0.16369C5.42548 0.36355 4.97427 1.06554 5.08773 1.8008L5.54568 4.7698C5.56063 4.86652 5.62371 4.94897 5.71316 4.98867C5.75044 5.0052 5.79014 5.01336 5.82968 5.01336C5.88506 5.01336 5.94014 4.99736 5.98784 4.96598L7.83655 3.74781L9.68584 4.96598C9.73343 4.99741 9.7885 5.01336 9.84384 5.01336ZM9.16002 2.03878L7.83581 3.58101L6.51202 2.03878C6.47154 1.9916 6.46048 1.92595 6.48322 1.86814C6.50597 1.81033 6.55883 1.76973 6.62059 1.76289C6.91453 1.73019 7.24876 1.70898 7.60647 1.70255C7.68233 1.70118 7.75894 1.70029 7.83676 1.70029C7.91405 1.70029 7.99013 1.70118 8.06558 1.70255C8.42297 1.70892 8.7573 1.73014 9.05151 1.76284C9.11332 1.76973 9.16623 1.81022 9.18903 1.86809C9.21177 1.926 9.20056 1.9916 9.16002 2.03878Z" fill="#1B242C"/>
</svg>
