<?xml version="1.0" encoding="utf-8"?>
<!-- Generator: Adobe Illustrator 24.0.1, SVG Export Plug-In . SVG Version: 6.00 Build 0)  -->
<svg version="1.1" id="Layer_1" xmlns="http://www.w3.org/2000/svg" xmlns:xlink="http://www.w3.org/1999/xlink" x="0px" y="0px"
	 width="500px" height="500px" viewBox="0 0 500 500" style="enable-background:new 0 0 500 500;" xml:space="preserve">
<style type="text/css">
	.st0{fill:url(#SVGID_1_);}
</style>
<g>
	<linearGradient id="SVGID_1_" gradientUnits="userSpaceOnUse" x1="251.1329" y1="490.1723" x2="251.1329" y2="11.163">
		<stop  offset="0" style="stop-color:#FFFFFF"/>
		<stop  offset="9.343887e-03" style="stop-color:#FFFFFF"/>
		<stop  offset="0.2809" style="stop-color:#FFFFFF"/>
		<stop  offset="0.6685" style="stop-color:#E8E7E5"/>
		<stop  offset="0.8876" style="stop-color:#E8E7E5"/>
		<stop  offset="1" style="stop-color:#E8E7E5"/>
	</linearGradient>
	<path class="st0" d="M232.8,11.3c12.3,0.1,24.3,2.4,36.2,5.8c15.3,4.3,29.3,11.2,42.4,20.1c10.2,7,19.2,15.2,27.4,24.5
		c9.2,10.5,16.9,21.9,23.2,34.3c7.4,14.5,12.1,29.9,14.5,46c0.8,5.7,1.1,11.4,1.4,17.1c1.1,18.8-2.1,37-8,54.8
		c-5.6,17-14.4,32.3-25.4,46.4c-10.1,12.9-22.2,23.4-35.6,32.6c-6.4,4.4-13.2,8.3-21.3,7.6c-11.9-0.9-21.6-8.1-24.9-20.4
		c-2.7-10.2,0-18.8,6.8-26.5c2.6-3,6.2-4.7,9.4-6.9c21.5-14.6,35.6-34.3,41.7-59.6c2.2-9.1,3.3-18.5,2.5-27.8
		c-1-12.5-3.9-24.5-9.3-36c-5.7-12.4-13.4-23.3-23.5-32.5c-11-10-23.6-17.2-37.8-21.4c-9.7-2.8-19.5-4.4-29.6-4.2
		c-18,0.4-34.8,5-50.1,14.6c-21.3,13.4-35.9,32-43.2,56.2c-2.6,8.5-3.6,17.2-4.2,26.1c-0.6,8.7-0.3,17.3,1.8,25.7
		c3.5,14.2,10,26.9,19.2,38.3c7.1,8.7,15.7,15.7,23.9,23.1c4.4,4,8.8,8,13.2,12c11.2,10.1,22.5,20.2,33.7,30.2
		c8.8,7.9,17.8,15.4,26.5,23.4c11.9,11.1,24.1,21.8,36.2,32.7c7.9,7.1,15.8,14.2,23.7,21.3c12.1,10.9,24.2,21.8,36.2,32.7
		c7.6,6.8,15.2,13.7,22.8,20.5c11.5,10.3,22.9,20.5,34.3,30.9c1.5,1.4,2.5,0.6,3.5-0.3c4.9-4.5,9.8-9,14.7-13.4
		c4.9-4.4,9.8-8.8,14.7-13.1c0.8-0.7,1.9-0.1,1.9,0.9c0,0,0,0,0,0c0,19.8,0,39.7,0.1,59.5c0,2.6-0.7,3.3-3.3,3.3
		c-22.4-0.1-44.8-0.2-67.2,0c-3.8,0-6.5-1.2-9.1-3.6c-11.2-10.3-22.4-20.5-33.7-30.7c-9.7-8.8-19.5-17.6-29.3-26.4
		c-10-9-20-18-30-27c-10-9-20-18-30-27c-10.1-9.1-20.3-18.3-30.4-27.4c-8.9-8.1-17.7-16.2-26.6-24.2c-9.8-8.8-19.5-17.7-29.3-26.4
		c-10.9-9.6-22-19.1-31.9-29.7c-8.6-9.1-15.8-19.3-21.9-30.2c-6.5-11.7-11.3-24.1-14.5-37.2c-3.6-14.8-4.7-29.9-3.7-45
		c1.3-18.9,6.2-37,13.9-54.3c6.9-15.3,16-29.2,27.2-41.7c11.8-13.2,25.7-23.5,41.3-31.7c14.5-7.7,30-12.3,46.1-15.1
		C203.8,11.9,230.9,10.8,232.8,11.3z"/>
</g>
</svg>
