<svg width="16" height="17" viewBox="0 0 16 17" fill="none" xmlns="http://www.w3.org/2000/svg">
<path d="M7.60526 0C3.4117 0 0 3.45602 0 7.70398V15.1455C0 16.1681 0.821293 17 1.83078 17H13.3797C14.3892 17 15.2105 16.1681 15.2105 15.1455V7.70398C15.2106 3.45602 11.7988 0 7.60526 0ZM1.40652 7.70398C1.40652 4.24164 4.18726 1.42476 7.60526 1.42476C11.0233 1.42476 13.8041 4.24164 13.8041 7.70398V8.25776H13.4358V10.5823C13.4358 11.9322 12.3516 13.0304 11.0191 13.0304H9.09988V14.0033C9.09988 14.2394 8.91102 14.4307 8.67793 14.4307H6.87022C6.63713 14.4307 6.44826 14.2394 6.44826 14.0033V13.0304H4.19148C2.85883 13.0304 1.77474 11.9322 1.77474 10.5823V8.25776H1.40652V7.70398V7.70398Z" fill="#1B242C"/>
<path d="M4.19099 12.1756H6.44772V11.3036C6.44772 11.0675 6.63658 10.8762 6.86967 10.8762H8.67738C8.91047 10.8762 9.09934 11.0675 9.09934 11.3036V12.1756H11.0186C11.8858 12.1756 12.5913 11.4609 12.5913 10.5823V8.25781H2.61816V10.5823C2.61816 11.4609 3.32373 12.1756 4.19099 12.1756Z" fill="#1B242C"/>
<path d="M8.25579 11.7314H7.29199V13.5763H8.25579V11.7314Z" fill="#1B242C"/>
</svg>
